<svg width="32" height="32" viewBox="0 0 32 32" fill="none" xmlns="http://www.w3.org/2000/svg">
<path d="M15.3672 10.0563C15.2031 9.85 14.9031 9.81719 14.6969 9.98125C14.4484 10.1781 14.1531 10.2859 13.8344 10.2859C13.5156 10.2859 13.2203 10.1828 12.9719 9.98125C12.7656 9.81719 12.4656 9.85 12.3016 10.0563C12.1375 10.2625 12.1703 10.5625 12.3766 10.7266C12.7891 11.0594 13.3094 11.2375 13.8391 11.2375C14.3688 11.2375 14.8891 11.0547 15.3016 10.7266C15.4984 10.5625 15.5313 10.2625 15.3672 10.0563Z" fill="black"/>
<path d="M27.6532 16.8016C27.2688 15.7469 26.6032 14.8422 25.7267 14.1859C25.1032 13.7219 24.3954 13.4031 23.6313 13.2391C23.7954 11.7344 23.3267 10.1734 22.347 8.9875C21.2876 7.70781 19.7642 7 18.0579 7H17.7813C16.586 7 15.4282 7.42188 14.4298 8.22344C14.2563 8.35938 14.0501 8.43438 13.8298 8.43438C13.6095 8.43438 13.4032 8.35938 13.2298 8.22344C12.236 7.42188 11.0782 7 9.88291 7H9.60635C8.37354 7 7.22041 7.375 6.27354 8.07813C5.39229 8.73438 4.72667 9.63438 4.34698 10.6938C3.96729 11.7438 3.89698 12.8594 4.15479 13.9188C4.42667 15.0625 5.06885 16.0797 6.01104 16.8672C6.72823 17.4672 7.51573 17.9828 8.3501 18.4C8.31729 18.9484 8.36416 19.4922 8.49073 20.0266C8.7626 21.1703 9.40479 22.1875 10.347 22.975C12.536 24.8031 15.3157 25.8063 18.1704 25.8063C21.0251 25.8063 23.8048 24.7984 25.9938 22.975C26.936 22.1875 27.5782 21.1703 27.8501 20.0266C28.1032 18.9672 28.0376 17.8516 27.6532 16.8016ZM8.5001 17.4016C7.83448 17.0453 7.20635 16.6188 6.62041 16.1313C4.79229 14.6078 4.7126 12.4891 5.24229 11.0172C5.77666 9.53594 7.20635 7.95625 9.60166 7.95625H9.87822C10.8532 7.95625 11.8048 8.30781 12.6298 8.96875C12.9673 9.24063 13.3938 9.39063 13.8251 9.39063C14.2563 9.39063 14.6829 9.24063 15.0204 8.96875C15.8454 8.30313 16.797 7.95625 17.772 7.95625H18.0485C19.4642 7.95625 20.7251 8.5375 21.6017 9.59688C22.4173 10.5813 22.8017 11.8703 22.6751 13.1125C22.5813 13.1078 22.4829 13.1031 22.3845 13.1031H22.1079C20.9126 13.1031 19.7548 13.525 18.7563 14.3266C18.5829 14.4625 18.3767 14.5375 18.1563 14.5375C17.936 14.5375 17.7298 14.4625 17.5563 14.3266C16.5579 13.525 15.4001 13.1031 14.2048 13.1031H13.9282C12.6954 13.1031 11.547 13.4781 10.5954 14.1813C9.71416 14.8375 9.04854 15.7375 8.66885 16.7969C8.60791 16.9984 8.54698 17.2 8.5001 17.4016ZM25.3798 22.2391C23.3642 23.9219 20.8001 24.85 18.1704 24.85C15.5407 24.85 12.972 23.9219 10.9563 22.2391C9.12823 20.7156 9.04854 18.5969 9.57823 17.125C10.1126 15.6438 11.5423 14.0641 13.9376 14.0641H14.2142C15.1892 14.0641 16.1407 14.4156 16.9657 15.0766C17.3032 15.3484 17.7298 15.4984 18.161 15.4984C18.5923 15.4984 19.0188 15.3484 19.3563 15.0766C20.1813 14.4109 21.1329 14.0641 22.1079 14.0641H22.3845C24.7798 14.0641 26.2095 15.6484 26.7438 17.125C27.2876 18.5969 27.2079 20.7156 25.3798 22.2391Z" fill="black"/>
<path d="M19.6235 16.0985C19.4595 15.8922 19.1595 15.8594 18.9532 16.0235C18.7048 16.2204 18.4095 16.3282 18.0907 16.3282C17.772 16.3282 17.4767 16.2251 17.2282 16.0235C17.022 15.8594 16.722 15.8922 16.5579 16.0985C16.3939 16.3047 16.4267 16.6047 16.6329 16.7688C17.0454 17.1016 17.5657 17.2797 18.0954 17.2797C18.6251 17.2797 19.1454 17.0969 19.5579 16.7688C19.7595 16.6047 19.7923 16.3047 19.6235 16.0985Z" fill="black"/>
<path d="M23.3174 22.4453C23.1955 22.2109 22.9096 22.1172 22.6752 22.239C21.2736 22.9562 19.7596 23.3219 18.1705 23.3219C17.908 23.3219 17.6924 23.5375 17.6924 23.8C17.6924 24.0625 17.908 24.2781 18.1705 24.2781C19.9096 24.2781 21.5736 23.8797 23.1111 23.0875C23.3455 22.9703 23.4346 22.6797 23.3174 22.4453Z" fill="black"/>
<path d="M25.1689 21.0953C25.0002 20.8937 24.7002 20.8656 24.4939 21.0344C24.3814 21.1281 24.2689 21.2172 24.1564 21.3062C23.9455 21.4656 23.908 21.7656 24.0674 21.9765C24.1611 22.0984 24.3017 22.164 24.4471 22.164C24.5502 22.164 24.6486 22.1312 24.7377 22.0656C24.8643 21.9719 24.9861 21.8687 25.108 21.7703C25.3096 21.5969 25.3377 21.2969 25.1689 21.0953Z" fill="black"/>
</svg>
