<svg width="32" height="32" viewBox="0 0 32 32" fill="none" xmlns="http://www.w3.org/2000/svg">
<path d="M4.18761 25.5505C7.66777 27.7268 7.43795 27.6142 7.60211 27.6142C7.76627 27.6142 7.5599 27.708 10.8056 25.6865C14.0559 27.7174 13.8495 27.6142 14.009 27.6142C14.1685 27.6142 14.009 27.6846 16.6261 26.0477C16.8138 25.9304 16.87 25.6818 16.7528 25.4942C16.6355 25.3066 16.3869 25.2503 16.1993 25.3676L14.0043 26.7418L11.2042 24.9924V22.2345L12.6676 21.3199C12.8552 21.2027 12.9115 20.9541 12.7942 20.7665C12.677 20.5789 12.4284 20.5226 12.2408 20.6398L10.8056 21.5404L8.00547 19.7909V17.033L10.8056 15.2836C12.3674 16.2591 12.2642 16.2122 12.3768 16.231C12.5644 16.2638 12.752 16.1653 12.8224 15.9871C12.8927 15.8089 12.827 15.6072 12.6676 15.504L11.2042 14.5894V11.8315L14.0043 10.0821L16.8044 11.8315V12.4084C16.8044 12.6289 16.9826 12.8071 17.203 12.8071C17.4235 12.8071 17.6017 12.6289 17.6017 12.4084V11.8315L20.4018 10.0821L23.2019 11.8315V14.8098C23.2019 15.0303 23.3801 15.2085 23.6005 15.2085C23.821 15.2085 23.9992 15.0303 23.9992 14.8098V11.6064C23.9992 11.4704 23.9289 11.3391 23.8116 11.2687L20.7958 9.38323V6.40023C20.7958 6.26422 20.7254 6.13289 20.6082 6.06254L17.4188 4.0598C17.2875 3.98007 17.1233 3.98007 16.9967 4.0598L14.009 5.92652L11.0166 4.0598C10.8853 3.98007 10.7211 3.98007 10.5945 4.0598L7.39105 6.06254C7.27379 6.13758 7.20344 6.26422 7.20344 6.40023V9.37854L4.18761 11.264C4.07035 11.3391 4 11.4657 4 11.6017V14.8052C4 14.9412 4.07035 15.0725 4.18761 15.1429L7.20344 17.0283V19.7862L4.18761 21.6717C4.07035 21.7467 4 21.8734 4 22.0094V25.2128C4 25.3488 4.07035 25.4755 4.18761 25.5505ZM17.2077 4.87121L20.0078 6.62068V9.37854L17.2077 11.128L14.4077 9.37854V6.62068L17.2077 4.87121ZM10.8056 4.87121L13.6056 6.62068V9.37854L10.8056 11.128L8.00547 9.37854V6.62068L10.8056 4.87121ZM4.80203 11.8269L7.60211 10.0774L10.4022 11.8269V14.5847L7.60211 16.3342L4.80203 14.5847V11.8269ZM4.80203 22.2298L7.60211 20.4804L10.4022 22.2298V24.9877L7.60211 26.7372L4.80203 24.9877V22.2298Z" fill="black"/>
<path d="M22.4092 16.0105V15.6072C22.4092 14.9083 22.0996 14.2423 21.5696 13.7827L21.9683 12.9806C22.0668 12.7836 21.9824 12.5444 21.7854 12.4459C21.5884 12.3474 21.3492 12.4272 21.2507 12.6242L20.8802 13.3699C20.322 13.1495 19.6982 13.1495 19.1354 13.3699L18.7649 12.6242C18.7039 12.4928 18.5726 12.4084 18.4318 12.399C18.2864 12.3896 18.1504 12.46 18.0707 12.5773C17.991 12.6992 17.9816 12.8493 18.0472 12.9806L18.4459 13.7827C17.9112 14.2376 17.6017 14.9036 17.6017 15.6072V16.0105C17.2358 16.0058 16.8419 16.0058 16.401 16.0058C14.2763 16.0058 11.9968 16.972 11.9968 18.4072C11.9968 20.1332 15.2472 21.0385 16.8653 20.7664C16.8278 21.0854 16.7996 21.5216 16.7996 21.8124C16.7996 24.6124 18.0003 26.8497 19.5997 27.1733V27.6189C19.5997 27.8393 19.7779 28.0176 19.9984 28.0176C20.2188 28.0176 20.3971 27.8393 20.3971 27.6189V27.1686C21.9964 26.845 23.1971 24.6077 23.1971 21.8077C23.1971 21.5216 23.169 21.0807 23.1315 20.7664C24.7684 21.0385 28 20.1239 28 18.4072C28 16.972 25.7252 16.0058 23.5958 16.0058C23.1924 16.0058 22.7844 16.0058 22.4092 16.0105ZM18.4084 15.6072C18.4084 14.7207 19.126 14.0078 20.0078 14.0078C20.8942 14.0078 21.6071 14.7254 21.6071 15.6072V16.0293C21.0678 16.0199 20.5237 16.0996 20.0078 16.2591C19.4918 16.0903 18.9478 16.0152 18.4037 16.0293V15.6072H18.4084ZM20.0125 18.1587C20.2001 18.5339 20.4299 18.8856 20.7019 19.2046H19.3183C19.5856 18.8856 19.8202 18.5339 20.0125 18.1587ZM12.8035 18.4072C12.8035 17.6849 14.4639 16.8079 16.4057 16.8079C17.2077 16.8079 19.0979 16.7938 19.595 16.9533C19.459 17.9148 18.0613 20.0113 16.4057 20.0113C14.4686 20.0066 12.8035 19.1295 12.8035 18.4072ZM18.4928 20.0066H21.518C21.7619 20.1989 22.0246 20.3631 22.3013 20.4991C22.3154 20.6023 22.3294 20.7055 22.3435 20.8086H19.6091C19.3887 20.8086 19.2104 20.9869 19.2104 21.2073C19.2104 21.4278 19.3887 21.606 19.6091 21.606H22.3998C22.4186 21.8733 22.4139 22.1407 22.3857 22.408H17.6298C17.6017 22.1407 17.597 21.8733 17.6157 21.606H18.005C18.2255 21.606 18.4037 21.4278 18.4037 21.2073C18.4037 20.9869 18.2255 20.8086 18.005 20.8086H17.672C17.6861 20.7008 17.7002 20.5976 17.7142 20.4897C17.9957 20.3584 18.2536 20.1989 18.4928 20.0066ZM18.2067 24.8094H20.0078C20.2282 24.8094 20.4064 24.6312 20.4064 24.4108C20.4064 24.1903 20.2282 24.0121 20.0078 24.0121H17.9112C17.8362 23.7494 17.7752 23.4821 17.7283 23.21H22.2919C22.245 23.4821 22.184 23.7494 22.109 24.0121H21.6118C21.3914 24.0121 21.2132 24.1903 21.2132 24.4108C21.2132 24.6312 21.3914 24.8094 21.6118 24.8094H21.8135C20.8379 26.9435 19.1823 26.9435 18.2067 24.8094ZM27.212 18.4072C27.212 19.4016 24.2384 20.4053 22.8125 19.8518C21.6212 19.289 20.7441 18.229 20.4205 16.9533C20.9974 16.7797 22.7281 16.8079 23.6099 16.8032C25.5516 16.8079 27.212 17.6849 27.212 18.4072Z" fill="black"/>
</svg>
