<svg width="32" height="32" viewBox="0 0 32 32" fill="none" xmlns="http://www.w3.org/2000/svg">
<path d="M15.268 23.194C15.0196 23.119 14.7571 23.2597 14.6868 23.5081C14.0634 25.5986 12.0995 27.061 9.91524 27.061C7.16855 27.0563 4.93744 24.8252 4.93744 22.0832C4.93744 18.4037 6.23111 14.818 8.58408 11.9869L9.37621 11.0354C9.50746 10.8761 9.70432 10.7823 9.91056 10.7823C10.1168 10.7823 10.3137 10.8761 10.4449 11.0354L11.237 11.9869C13.0322 14.1477 14.2228 16.7538 14.6774 19.524C14.7196 19.7771 14.9587 19.9505 15.2165 19.9083C15.4696 19.8661 15.643 19.6271 15.6008 19.3693C15.118 16.4351 13.8572 13.6743 11.9589 11.387L11.1714 10.4308C10.8621 10.0558 10.4027 9.84021 9.91524 9.84021C9.42777 9.84021 8.96843 10.0558 8.65907 10.4308L7.86694 11.3823C5.37335 14.3821 4 18.1834 4 22.0832C4 25.3455 6.65295 27.9984 9.91524 27.9984C11.2136 27.9984 12.4463 27.5859 13.4822 26.8032C14.4806 26.0485 15.2305 24.9705 15.5868 23.7799C15.6571 23.5268 15.5164 23.2643 15.268 23.194Z" fill="black"/>
<path d="M9.69025 15.8539C9.46058 15.9758 9.37621 16.2617 9.49808 16.4867C10.2715 17.9257 10.7449 19.5474 10.8714 21.1739C10.8902 21.4176 11.0964 21.6051 11.3401 21.6051C11.3542 21.6051 11.3636 21.6051 11.3776 21.6051C11.6354 21.5864 11.8276 21.3614 11.8089 21.1036C11.6729 19.3224 11.1714 17.621 10.3277 16.0461C10.2058 15.8164 9.91992 15.732 9.69025 15.8539Z" fill="black"/>
<path d="M9.9153 24.0144C10.1731 24.0144 10.384 23.8035 10.384 23.5457C10.384 23.2879 10.1731 23.077 9.9153 23.077C9.3669 23.077 8.91693 22.6317 8.91693 22.0786C8.91693 21.4927 8.95912 20.9021 9.04817 20.3256C9.08567 20.0678 8.91224 19.8287 8.65445 19.7912C8.39665 19.7537 8.15761 19.9272 8.12011 20.1849C8.02636 20.8083 7.97949 21.4458 7.97949 22.0786C7.97949 23.1473 8.84662 24.0144 9.9153 24.0144Z" fill="black"/>
<path d="M9.91525 26.0064C12.0807 26.0064 13.8384 24.244 13.8384 22.0832C13.8384 21.8254 13.6275 21.6145 13.3697 21.6145C13.1119 21.6145 12.901 21.8254 12.901 22.0832C12.901 23.7284 11.5605 25.069 9.91525 25.069C9.65746 25.069 9.44653 25.2799 9.44653 25.5377C9.44653 25.7955 9.65746 26.0064 9.91525 26.0064Z" fill="black"/>
<path d="M12.9713 19.2053C13.0088 19.2053 13.0463 19.2006 13.0838 19.1912C13.3369 19.1303 13.4916 18.8772 13.4307 18.6241C13.1073 17.2835 12.5964 15.9946 11.9167 14.7946C11.7902 14.5697 11.5043 14.49 11.2793 14.6165C11.0543 14.7431 10.9746 15.029 11.1012 15.254C11.7386 16.3789 12.2167 17.5835 12.5214 18.8397C12.5682 19.06 12.7604 19.2053 12.9713 19.2053Z" fill="black"/>
<path d="M8.11056 15.4039C7.8762 15.2914 7.59965 15.3851 7.48247 15.6195C6.50754 17.6256 5.99194 19.8567 5.99194 22.0785C5.99194 22.3363 6.20287 22.5472 6.46066 22.5472C6.71846 22.5472 6.92938 22.3363 6.92938 22.0785C6.92938 19.9973 7.41216 17.9069 8.32617 16.032C8.43866 15.7976 8.34023 15.5211 8.11056 15.4039Z" fill="black"/>
<path d="M27.9938 17.2601L27.8813 16.0273C27.525 12.1463 25.8095 8.49033 23.0534 5.72958C20.7473 3.42347 16.9976 3.42347 14.6915 5.72958C12.3854 8.03568 12.3854 11.7854 14.6915 14.0915C17.4476 16.8476 21.1036 18.5631 24.9893 18.924L26.222 19.0365C26.2736 19.0412 26.3251 19.0412 26.372 19.0412C26.8032 19.0412 27.2157 18.8725 27.525 18.5631C27.8625 18.221 28.0359 17.7429 27.9938 17.2601ZM26.8548 17.9022C26.7095 18.0475 26.5032 18.1225 26.297 18.1038L25.0643 17.9913C21.3989 17.6538 17.9491 16.032 15.3477 13.4306C13.4072 11.4901 13.4072 8.33097 15.3477 6.39047C16.2898 5.44834 17.5366 4.93275 18.8678 4.93275C20.1989 4.93275 21.4457 5.44834 22.3879 6.39047C24.9893 8.99187 26.611 12.4463 26.9485 16.107L27.061 17.3398C27.0751 17.5507 27.0048 17.7569 26.8548 17.9022Z" fill="black"/>
<path d="M18.8632 8.91686C19.1304 8.91686 19.3788 9.01998 19.5663 9.20746C19.9787 9.61994 20.3678 10.0699 20.7146 10.5386C20.8084 10.6652 20.949 10.7308 21.0943 10.7308C21.1927 10.7308 21.2865 10.7027 21.3708 10.6371C21.5771 10.4824 21.6239 10.1918 21.4693 9.98085C21.0943 9.46995 20.6771 8.98717 20.2318 8.54188C19.8662 8.17628 19.3835 7.97473 18.8632 7.97473C18.3476 7.97473 17.8601 8.17628 17.4945 8.54188C17.3117 8.72468 17.3117 9.01998 17.4945 9.20278C17.6773 9.38558 17.9726 9.38558 18.1554 9.20278C18.3476 9.01998 18.6007 8.91686 18.8632 8.91686Z" fill="black"/>
<path d="M23.1144 13.576C21.5489 13.1026 20.0678 12.2917 18.8257 11.2324C18.6288 11.0637 18.3335 11.0871 18.1648 11.2839C17.996 11.4808 18.0195 11.7761 18.2163 11.9448C19.5709 13.1073 21.1271 13.9557 22.8426 14.4759C22.8895 14.49 22.9316 14.4947 22.9785 14.4947C23.1801 14.4947 23.3676 14.3634 23.4285 14.1619C23.4988 13.9088 23.3582 13.651 23.1144 13.576Z" fill="black"/>
<path d="M21.6378 7.13576C21.455 6.95296 21.1597 6.95296 20.9769 7.13576C20.7941 7.31856 20.7941 7.61385 20.9769 7.79665C22.4487 9.26843 23.583 11.0871 24.2674 13.0604C24.333 13.2525 24.5158 13.3744 24.7126 13.3744C24.7642 13.3744 24.8158 13.365 24.8673 13.3463C25.1111 13.2619 25.2423 12.9948 25.1579 12.751C24.4267 10.6512 23.2127 8.70597 21.6378 7.13576Z" fill="black"/>
<path d="M22.8565 15.5726C21.6097 15.2305 20.4192 14.7149 19.3177 14.0399C19.0974 13.904 18.8068 13.9743 18.6756 14.1946C18.5396 14.4149 18.6099 14.7055 18.8302 14.8368C20.0067 15.5586 21.2816 16.107 22.6081 16.4726C22.6503 16.482 22.6925 16.4913 22.7347 16.4913C22.9409 16.4913 23.1284 16.3554 23.1846 16.1492C23.2503 15.8961 23.105 15.6383 22.8565 15.5726Z" fill="black"/>
<path d="M16.7539 7.13576C16.5711 6.95296 16.2758 6.95296 16.093 7.13576C14.565 8.66378 14.565 11.1574 16.093 12.6854C16.1868 12.7791 16.304 12.8213 16.4258 12.8213C16.5477 12.8213 16.6649 12.7745 16.7586 12.6854C16.9414 12.5026 16.9414 12.2073 16.7586 12.0245C15.5962 10.8621 15.5962 8.96376 16.7586 7.80134C16.9367 7.61854 16.9367 7.31856 16.7539 7.13576Z" fill="black"/>
<path d="M15.3525 21.0754C15.2306 21.0754 15.1088 21.127 15.0197 21.2114C14.9307 21.3004 14.8838 21.4176 14.8838 21.5442C14.8838 21.666 14.9353 21.7879 15.0197 21.877C15.1088 21.966 15.226 22.0129 15.3525 22.0129C15.4791 22.0129 15.5962 21.9613 15.6853 21.877C15.7744 21.7879 15.8212 21.6707 15.8212 21.5442C15.8212 21.4176 15.7697 21.3004 15.6853 21.2114C15.5962 21.1223 15.4744 21.0754 15.3525 21.0754Z" fill="black"/>
</svg>
